<svg xmlns="http://www.w3.org/2000/svg" version="1.1" xmlns:xlink="http://www.w3.org/1999/xlink" xmlns:svgjs="http://svgjs.dev/svgjs" viewBox="0 0 1920 1080" class="overflow-hidden rounded-md drop-shadow-lg transition duration-300" style="overflow: hidden; height: 85vh;"><rect width="1920" height="1080" fill="#ebdbcc"/><g clip-path="url(&quot;#SvgjsClipPath1444&quot;)"><g transform="matrix(-0.020070267402875996,1.14982484942985,-1.14982484942985,-0.020070267402875996,1582.0996921824094,-532.621789805549)"><path d="M0,-1080C-3.3514672680799413,-1023.9366265384754,-27.59806360743289,-885.2439648637851,-20.108803608479647,-743.6197592308519C-12.619543609526403,-601.9955535979186,45.74199749723535,-365.7529872801153,44.935559993719465,-230.2547662024002C44.12912249020358,-94.75654512468509,-20.46555825441051,-62.61277333785135,-24.947428629574965,69.36956723543874C-29.42929900473942,201.3519078087288,19.792252393109937,412.28293457530367,18.044337742732736,561.6392772373403C16.296423092355536,710.9956198993768,-35.313881362834664,841.5326941693393,-35.43491653183818,965.5076232076583C-35.55595170084169,1089.4825522459773,6.825005624064227,1175.1563238423848,17.31812672871166,1305.4888514672546C27.811247833359097,1435.8213790921243,30.41016455083171,1605.0842642014188,27.523810096046432,1747.5027889568764C24.637455641261155,1889.921313712334,4.587301682674405,2091.250464826146,0,2160L 1920 2160 L 1920 -1080 Z" fill="url(&quot;#SvgjsLinearGradient1442&quot;)"/><path d="M960,-1080C954.1768808606005,-988.6690820780358,915.9231757689629,-713.5682096614421,925.0612851636032,-532.0144924682149C934.1993945582435,-350.4607752749878,999.0856647194314,-168.5407982043594,1014.8286563678416,9.32230315936323C1030.5716480162519,187.18540452308585,1036.7531723929512,350.30735855293585,1019.5192350540647,535.1641157141206C1002.2852977151781,720.0208728753054,921.7703723544923,935.1830252284863,911.4250323345225,1118.4628461264717C901.0796923145526,1301.7426670244572,949.3513669899996,1461.2535154564455,957.4471949342459,1634.8430411020336C965.5430228784921,1808.4325667476216,959.574532489041,2072.473840183672,960,2160L 1920 2160 L 1920 -1080 Z" fill="url(&quot;#SvgjsLinearGradient1443&quot;)"/></g></g><defs><linearGradient x1="0.1" y1="0" x2="0" y2="1" id="SvgjsLinearGradient1442"><stop stop-color="#ebdbcc" offset="0"/><stop stop-color="#ebd6cc" offset="0"/></linearGradient><linearGradient x1="0.1" y1="0" x2="0" y2="1" id="SvgjsLinearGradient1443"><stop stop-color="#f4ece4" offset="0"/><stop stop-color="#f4e9e4" offset="0.5"/></linearGradient><clipPath id="SvgjsClipPath1444"><rect width="1920" height="1080"/></clipPath></defs></svg>